TITLE ""
FILE "P1Q_t_0769-0777.mp3" MP3
  TRACK 01 AUDIO
    TITLE "P1Q_t_0769-0777_01"
    INDEX 01 00:00:00
  TRACK 02 AUDIO
    TITLE "P1Q_t_0769-0777_02"
    INDEX 01 00:01:22
  TRACK 03 AUDIO
    TITLE "P1Q_t_0769-0777_03"
    INDEX 01 00:01:43
  TRACK 04 AUDIO
    TITLE "P1Q_t_0769-0777_04"
    INDEX 01 00:06:70
  TRACK 05 AUDIO
    TITLE "P1Q_t_0769-0777_05"
    INDEX 01 00:07:16
  TRACK 06 AUDIO
    TITLE "P1Q_t_0769-0777_06"
    INDEX 01 00:12:02
  TRACK 07 AUDIO
    TITLE "P1Q_t_0769-0777_07"
    INDEX 01 00:12:47
  TRACK 08 AUDIO
    TITLE "P1Q_t_0769-0777_08"
    INDEX 01 00:13:58
  TRACK 09 AUDIO
    TITLE "P1Q_t_0769-0777_09"
    INDEX 01 00:14:07
  TRACK 10 AUDIO
    TITLE "P1Q_t_0769-0777_10"
    INDEX 01 00:15:16
  TRACK 11 AUDIO
    TITLE "P1Q_t_0769-0777_11"
    INDEX 01 00:15:39
  TRACK 12 AUDIO
    TITLE "P1Q_t_0769-0777_12"
    INDEX 01 00:19:02
  TRACK 13 AUDIO
    TITLE "P1Q_t_0769-0777_13"
    INDEX 01 00:19:49
  TRACK 14 AUDIO
    TITLE "P1Q_t_0769-0777_14"
    INDEX 01 00:20:72
  TRACK 15 AUDIO
    TITLE "P1Q_t_0769-0777_15"
    INDEX 01 00:21:44
  TRACK 16 AUDIO
    TITLE "P1Q_t_0769-0777_16"
    INDEX 01 00:22:59
  TRACK 17 AUDIO
    TITLE "P1Q_t_0769-0777_17"
    INDEX 01 00:23:07
  TRACK 18 AUDIO
    TITLE "P1Q_t_0769-0777_18"
    INDEX 01 00:25:69
  TRACK 19 AUDIO
    TITLE "P1Q_t_0769-0777_19"
    INDEX 01 00:26:14
  TRACK 20 AUDIO
    TITLE "P1Q_t_0769-0777_20"
    INDEX 01 00:29:22
  TRACK 21 AUDIO
    TITLE "P1Q_t_0769-0777_21"
    INDEX 01 00:29:69
  TRACK 22 AUDIO
    TITLE "P1Q_t_0769-0777_22"
    INDEX 01 00:31:19
  TRACK 23 AUDIO
    TITLE "P1Q_t_0769-0777_23"
    INDEX 01 00:31:40
  TRACK 24 AUDIO
    TITLE "P1Q_t_0769-0777_24"
    INDEX 01 00:33:59
  TRACK 25 AUDIO
    TITLE "P1Q_t_0769-0777_25"
    INDEX 01 00:34:03
  TRACK 26 AUDIO
    TITLE "P1Q_t_0769-0777_26"
    INDEX 01 00:38:40
  TRACK 27 AUDIO
    TITLE "P1Q_t_0769-0777_27"
    INDEX 01 00:39:10
  TRACK 28 AUDIO
    TITLE "P1Q_t_0769-0777_28"
    INDEX 01 00:40:25
  TRACK 29 AUDIO
    TITLE "P1Q_t_0769-0777_29"
    INDEX 01 00:40:45
  TRACK 30 AUDIO
    TITLE "P1Q_t_0769-0777_30"
    INDEX 01 00:43:08
  TRACK 31 AUDIO
    TITLE "P1Q_t_0769-0777_31"
    INDEX 01 00:43:28
  TRACK 32 AUDIO
    TITLE "P1Q_t_0769-0777_32"
    INDEX 01 00:48:13
  TRACK 33 AUDIO
    TITLE "P1Q_t_0769-0777_33"
    INDEX 01 00:48:60
  TRACK 34 AUDIO
    TITLE "P1Q_t_0769-0777_34"
    INDEX 01 00:50:10
  TRACK 35 AUDIO
    TITLE "P1Q_t_0769-0777_35"
    INDEX 01 00:50:34
  TRACK 36 AUDIO
    TITLE "P1Q_t_0769-0777_36"
    INDEX 01 00:53:05
  TRACK 37 AUDIO
    TITLE "P1Q_t_0769-0777_37"
    INDEX 01 00:53:28
  TRACK 38 AUDIO
    TITLE "P1Q_t_0769-0777_38"
    INDEX 01 00:57:71
  TRACK 39 AUDIO
    TITLE "P1Q_t_0769-0777_39"
    INDEX 01 00:58:43
  TRACK 40 AUDIO
    TITLE "P1Q_t_0769-0777_40"
    INDEX 01 00:59:64
  TRACK 41 AUDIO
    TITLE "P1Q_t_0769-0777_41"
    INDEX 01 01:00:12
  TRACK 42 AUDIO
    TITLE "P1Q_t_0769-0777_42"
    INDEX 01 01:02:41
  TRACK 43 AUDIO
    TITLE "P1Q_t_0769-0777_43"
    INDEX 01 01:02:60
  TRACK 44 AUDIO
    TITLE "P1Q_t_0769-0777_44"
    INDEX 01 01:06:62
  TRACK 45 AUDIO
    TITLE "P1Q_t_0769-0777_45"
    INDEX 01 01:07:34
  TRACK 46 AUDIO
    TITLE "P1Q_t_0769-0777_46"
    INDEX 01 01:08:53
  TRACK 47 AUDIO
    TITLE "P1Q_t_0769-0777_47"
    INDEX 01 01:08:75
  TRACK 48 AUDIO
    TITLE "P1Q_t_0769-0777_48"
    INDEX 01 01:10:19
  TRACK 49 AUDIO
    TITLE "P1Q_t_0769-0777_49"
    INDEX 01 01:10:38
  TRACK 50 AUDIO
    TITLE "P1Q_t_0769-0777_50"
    INDEX 01 01:14:24
  TRACK 51 AUDIO
    TITLE "P1Q_t_0769-0777_51"
    INDEX 01 01:14:71
  TRACK 52 AUDIO
    TITLE "P1Q_t_0769-0777_52"
    INDEX 01 01:16:13
  TRACK 53 AUDIO
    TITLE "P1Q_t_0769-0777_53"
    INDEX 01 01:16:33
  TRACK 54 AUDIO
    TITLE "P1Q_t_0769-0777_54"
    INDEX 01 01:18:01
  TRACK 55 AUDIO
    TITLE "P1Q_t_0769-0777_55"
    INDEX 01 01:18:20
  TRACK 56 AUDIO
    TITLE "P1Q_t_0769-0777_56"
    INDEX 01 01:21:34
